# xmcd CD database file
#
# Track frame offsets:
#	150
#	14742
#	31730
#
# Disc length: 617 seconds
#
# Revision: 0
# Processed by: cddbd v1.5.1PL0 Copyright (c) Steve Scherf et al.
# Submitted via: CDex 1.51
#
DISCID=1b026703
DTITLE=Hysteric Blue - 直感パラダイス
DYEAR=2000
DGENRE=JPop
TTITLE0=直感パラダイス
TTITLE1=はとぽっぽ
TTITLE2=直感パラダイス (ORIGINAL KARAOKE)
EXTD=YEAR: 2000
EXTT0=
EXTT1=
EXTT2=
PLAYORDER=
